<mxfile host="Electron" modified="2024-02-11T16:51:29.195Z" agent="Mozilla/5.0 (Windows NT 10.0; Win64; x64) AppleWebKit/537.36 (KHTML, like Gecko) draw.io/23.0.2 Chrome/120.0.6099.109 Electron/28.1.0 Safari/537.36" etag="PUZhFqWIQjjNPhOZUhW2" version="23.0.2" type="device">
  <diagram name="Page-1" id="tINzlXGaw7KVdFfCqi-E">
    <mxGraphModel dx="1650" dy="2043" grid="1" gridSize="10" guides="1" tooltips="1" connect="1" arrows="1" fold="1" page="1" pageScale="1" pageWidth="850" pageHeight="1100" math="0" shadow="0">
      <root>
        <mxCell id="0" />
        <mxCell id="1" parent="0" />
        <mxCell id="Axh5L3VD_-4czKkgD2Hi-1" value="&lt;div style=&quot;background-color:#ffffff;padding:0px 0px 0px 2px;&quot;&gt;&lt;div style=&quot;color: rgb(0, 0, 0); background-color: rgb(255, 255, 255); font-family: Consolas; font-size: 10pt;&quot;&gt;&lt;p style=&quot;margin:0;&quot;&gt;&lt;span style=&quot;color:#7f0055;font-weight:bold;&quot;&gt;public&lt;/span&gt;&lt;span style=&quot;color:#000000;&quot;&gt; &lt;/span&gt;&lt;span style=&quot;color:#7f0055;font-weight:bold;&quot;&gt;class&lt;/span&gt;&lt;span style=&quot;color:#000000;&quot;&gt; ArrayList&amp;lt;E&amp;gt; &lt;/span&gt;&lt;span style=&quot;color:#7f0055;font-weight:bold;&quot;&gt;extends&lt;/span&gt;&lt;span style=&quot;color:#000000;&quot;&gt; &lt;/span&gt;&lt;span style=&quot;color:#000000;background-color:#d4d4d4;&quot;&gt;AbstractList&amp;lt;E&amp;gt;&amp;nbsp;&lt;/span&gt;&lt;span style=&quot;font-size: 10pt; color: rgb(127, 0, 85); font-weight: bold;&quot;&gt;implements&lt;/span&gt;&lt;span style=&quot;font-size: 10pt;&quot;&gt; List&amp;lt;E&amp;gt;, RandomAccess, Cloneable,java.io.Serializable&lt;/span&gt;&lt;/p&gt;&lt;p style=&quot;margin:0;&quot;&gt;&lt;span style=&quot;font-size: 10pt;&quot;&gt;{&lt;/span&gt;&lt;/p&gt;&lt;p style=&quot;margin:0;&quot;&gt;1) Not Synchronized&lt;/p&gt;&lt;p style=&quot;margin:0;&quot;&gt;2) Random Access&lt;/p&gt;&lt;p style=&quot;margin:0;&quot;&gt;3) Contiguous Memory Location&lt;/p&gt;&lt;p style=&quot;margin:0;&quot;&gt;4) Null Values&lt;/p&gt;&lt;p style=&quot;margin:0;&quot;&gt;5) Dynamic Array&lt;/p&gt;&lt;p style=&quot;margin:0;&quot;&gt;6) Duplicate Allowed&lt;/p&gt;&lt;p style=&quot;margin:0;&quot;&gt;7) Insertion and Deletion are slow&lt;/p&gt;&lt;p style=&quot;margin:0;&quot;&gt;8) By default not sorted&lt;/p&gt;&lt;p style=&quot;margin:0;&quot;&gt;9) Time Complexity is o(1) or o(n)&lt;/p&gt;&lt;p style=&quot;margin:0;&quot;&gt;}&lt;/p&gt;&lt;/div&gt;&lt;/div&gt;" style="text;whiteSpace=wrap;html=1;" vertex="1" parent="1">
          <mxGeometry x="10" y="-1080" width="970" height="200" as="geometry" />
        </mxCell>
        <mxCell id="Axh5L3VD_-4czKkgD2Hi-2" value="&lt;div style=&quot;background-color:#ffffff;padding:0px 0px 0px 2px;&quot;&gt;&lt;div style=&quot;color: rgb(0, 0, 0); background-color: rgb(255, 255, 255); font-family: Consolas; font-size: 10pt;&quot;&gt;&lt;p style=&quot;margin:0;&quot;&gt;&lt;span style=&quot;color:#7f0055;font-weight:bold;&quot;&gt;public&lt;/span&gt;&lt;span style=&quot;color:#000000;&quot;&gt; &lt;/span&gt;&lt;span style=&quot;color:#7f0055;font-weight:bold;&quot;&gt;class&lt;/span&gt;&lt;span style=&quot;color:#000000;&quot;&gt; Vector&amp;lt;E&amp;gt;&amp;nbsp;&lt;/span&gt;&lt;span style=&quot;font-size: 10pt; color: rgb(127, 0, 85); font-weight: bold;&quot;&gt;extends&lt;/span&gt;&lt;span style=&quot;font-size: 10pt;&quot;&gt; &lt;/span&gt;&lt;span style=&quot;font-size: 10pt; background-color: rgb(212, 212, 212);&quot;&gt;AbstractList&amp;lt;E&amp;gt;&amp;nbsp;&lt;/span&gt;&lt;span style=&quot;font-size: 10pt; color: rgb(127, 0, 85); font-weight: bold;&quot;&gt;implements&lt;/span&gt;&lt;span style=&quot;font-size: 10pt;&quot;&gt; List&amp;lt;E&amp;gt;, RandomAccess, Cloneable, java.io.Serializable {&lt;/span&gt;&lt;/p&gt;&lt;p style=&quot;margin:0;&quot;&gt;&lt;span style=&quot;font-size: 10pt;&quot;&gt;&lt;br&gt;&lt;/span&gt;&lt;/p&gt;&lt;p style=&quot;margin:0;&quot;&gt;&lt;span style=&quot;font-size: 10pt;&quot;&gt;1) Having some synchronized function&lt;/span&gt;&lt;/p&gt;&lt;p style=&quot;border-color: var(--border-color); font-size: 13.3333px; margin: 0px;&quot;&gt;2) Random Access&lt;/p&gt;&lt;p style=&quot;border-color: var(--border-color); font-size: 13.3333px; margin: 0px;&quot;&gt;3) Contiguous Memory Location&lt;/p&gt;&lt;p style=&quot;border-color: var(--border-color); font-size: 13.3333px; margin: 0px;&quot;&gt;4) Null Values&lt;/p&gt;&lt;p style=&quot;border-color: var(--border-color); font-size: 13.3333px; margin: 0px;&quot;&gt;5) Dynamic Array&lt;/p&gt;&lt;p style=&quot;border-color: var(--border-color); font-size: 13.3333px; margin: 0px;&quot;&gt;6) Duplicate Allowed&lt;/p&gt;&lt;p style=&quot;border-color: var(--border-color); font-size: 13.3333px; margin: 0px;&quot;&gt;7) Insertion and Deletion are slow&lt;/p&gt;&lt;p style=&quot;border-color: var(--border-color); font-size: 13.3333px; margin: 0px;&quot;&gt;8) By default not sorted&lt;/p&gt;&lt;p style=&quot;border-color: var(--border-color); font-size: 13.3333px; margin: 0px;&quot;&gt;9) Time Complexity is O(1) or O(n)&lt;/p&gt;&lt;p style=&quot;margin:0;&quot;&gt;}&lt;/p&gt;&lt;/div&gt;&lt;/div&gt;" style="text;whiteSpace=wrap;html=1;" vertex="1" parent="1">
          <mxGeometry x="10" y="-890" width="1150" height="190" as="geometry" />
        </mxCell>
        <mxCell id="Axh5L3VD_-4czKkgD2Hi-3" value="&lt;div style=&quot;background-color:#ffffff;padding:0px 0px 0px 2px;&quot;&gt;&lt;div style=&quot;color: rgb(0, 0, 0); background-color: rgb(255, 255, 255); font-family: Consolas; font-size: 10pt;&quot;&gt;&lt;p style=&quot;margin:0;&quot;&gt;&lt;span style=&quot;color:#7f0055;font-weight:bold;&quot;&gt;public&lt;/span&gt;&lt;span style=&quot;color:#000000;&quot;&gt; &lt;/span&gt;&lt;span style=&quot;color:#7f0055;font-weight:bold;&quot;&gt;class&lt;/span&gt;&lt;span style=&quot;color:#000000;&quot;&gt; &lt;/span&gt;&lt;span style=&quot;color:#000000;background-color:#d4d4d4;&quot;&gt;LinkedList&lt;/span&gt;&lt;span style=&quot;color:#000000;&quot;&gt;&amp;lt;E&amp;gt;&amp;nbsp;&lt;/span&gt;&lt;span style=&quot;font-size: 10pt; color: rgb(127, 0, 85); font-weight: bold;&quot;&gt;extends&lt;/span&gt;&lt;span style=&quot;font-size: 10pt;&quot;&gt; AbstractSequentialList&amp;lt;E&amp;gt;&amp;nbsp;&lt;/span&gt;&lt;span style=&quot;font-size: 10pt; color: rgb(127, 0, 85); font-weight: bold;&quot;&gt;implements&lt;/span&gt;&lt;span style=&quot;font-size: 10pt;&quot;&gt; List&amp;lt;E&amp;gt;, Deque&amp;lt;E&amp;gt; extends Queue&amp;lt;E&amp;gt;&lt;/span&gt;&lt;span style=&quot;font-size: 10pt;&quot;&gt;,&amp;nbsp;&lt;/span&gt;&lt;span style=&quot;font-size: 10pt;&quot;&gt;Cloneable, java.io.Serializable{&lt;/span&gt;&lt;/p&gt;&lt;p style=&quot;margin:0;&quot;&gt;&lt;span style=&quot;font-size: 10pt;&quot;&gt;&lt;br&gt;&lt;/span&gt;&lt;/p&gt;&lt;p style=&quot;border-color: var(--border-color); font-size: 13.3333px; margin: 0px;&quot;&gt;1) Not Synchronized&lt;/p&gt;&lt;p style=&quot;border-color: var(--border-color); font-size: 13.3333px; margin: 0px;&quot;&gt;2) Random Access not possible&lt;/p&gt;&lt;p style=&quot;border-color: var(--border-color); font-size: 13.3333px; margin: 0px;&quot;&gt;3) Non-Contiguous Memory Location&lt;/p&gt;&lt;p style=&quot;border-color: var(--border-color); font-size: 13.3333px; margin: 0px;&quot;&gt;4) Null Values&lt;/p&gt;&lt;p style=&quot;border-color: var(--border-color); font-size: 13.3333px; margin: 0px;&quot;&gt;5) DoublyLinkedList Memory Location&lt;/p&gt;&lt;p style=&quot;border-color: var(--border-color); font-size: 13.3333px; margin: 0px;&quot;&gt;6) Duplicate Allowed&lt;/p&gt;&lt;p style=&quot;border-color: var(--border-color); font-size: 13.3333px; margin: 0px;&quot;&gt;7) Insertion and Deletion are fast&lt;/p&gt;&lt;p style=&quot;border-color: var(--border-color); font-size: 13.3333px; margin: 0px;&quot;&gt;8) By default not sorted&lt;/p&gt;&lt;p style=&quot;border-color: var(--border-color); font-size: 13.3333px; margin: 0px;&quot;&gt;9) Time Complexity is o(1)&lt;/p&gt;&lt;p style=&quot;margin:0;&quot;&gt;&lt;span style=&quot;font-size: 10pt;&quot;&gt;}&lt;/span&gt;&lt;/p&gt;&lt;/div&gt;&lt;/div&gt;" style="text;whiteSpace=wrap;html=1;" vertex="1" parent="1">
          <mxGeometry x="10" y="-700" width="1150" height="190" as="geometry" />
        </mxCell>
        <mxCell id="Axh5L3VD_-4czKkgD2Hi-5" value="&lt;div style=&quot;background-color:#ffffff;padding:0px 0px 0px 2px;&quot;&gt;&lt;div style=&quot;color: rgb(0, 0, 0); background-color: rgb(255, 255, 255); font-family: Consolas; font-size: 10pt;&quot;&gt;&lt;p style=&quot;margin:0;&quot;&gt;&lt;span style=&quot;color:#7f0055;font-weight:bold;&quot;&gt;public&lt;/span&gt;&lt;span style=&quot;color:#000000;&quot;&gt; &lt;/span&gt;&lt;span style=&quot;color:#7f0055;font-weight:bold;&quot;&gt;class&lt;/span&gt;&lt;span style=&quot;color:#000000;&quot;&gt; HashSet&amp;lt;E&amp;gt;&amp;nbsp;&lt;/span&gt;&lt;span style=&quot;font-size: 10pt; color: rgb(127, 0, 85); font-weight: bold;&quot;&gt;extends&lt;/span&gt;&lt;span style=&quot;font-size: 10pt;&quot;&gt; &lt;/span&gt;&lt;span style=&quot;font-size: 10pt; background-color: rgb(212, 212, 212);&quot;&gt;AbstractSet&amp;lt;E&amp;gt;&amp;nbsp;&lt;/span&gt;&lt;span style=&quot;font-size: 10pt; color: rgb(127, 0, 85); font-weight: bold;&quot;&gt;implements&lt;/span&gt;&lt;span style=&quot;font-size: 10pt;&quot;&gt; Set&amp;lt;E&amp;gt;, Cloneable, java.io.Serializable{&lt;/span&gt;&lt;/p&gt;&lt;p style=&quot;margin:0;&quot;&gt;&lt;span style=&quot;font-size: 10pt;&quot;&gt;1) Not Synchronized&lt;/span&gt;&lt;/p&gt;&lt;p style=&quot;margin:0;&quot;&gt;&lt;span style=&quot;font-size: 10pt;&quot;&gt;2) Internally using HashMap&lt;/span&gt;&lt;/p&gt;&lt;p style=&quot;margin:0;&quot;&gt;&lt;span style=&quot;font-size: 10pt;&quot;&gt;3) Random Access&lt;/span&gt;&lt;/p&gt;&lt;p style=&quot;margin:0;&quot;&gt;&lt;span style=&quot;font-size: 10pt;&quot;&gt;4) By default not sorted&lt;/span&gt;&lt;/p&gt;&lt;p style=&quot;margin:0;&quot;&gt;&lt;span style=&quot;font-size: 10pt;&quot;&gt;5) Insertion and deletion is faster&lt;/span&gt;&lt;/p&gt;&lt;p style=&quot;margin:0;&quot;&gt;&lt;span style=&quot;font-size: 10pt;&quot;&gt;6) Time Complexity is O(1)&lt;/span&gt;&lt;/p&gt;&lt;p style=&quot;margin:0;&quot;&gt;&lt;span style=&quot;font-size: 10pt;&quot;&gt;7) Internally using equals() and hashCode() to compare to maintian the unique hashing&lt;/span&gt;&lt;/p&gt;&lt;p style=&quot;margin:0;&quot;&gt;&lt;span style=&quot;font-size: 10pt;&quot;&gt;}&lt;/span&gt;&lt;/p&gt;&lt;/div&gt;&lt;/div&gt;" style="text;whiteSpace=wrap;html=1;" vertex="1" parent="1">
          <mxGeometry x="10" y="-510" width="1150" height="150" as="geometry" />
        </mxCell>
        <mxCell id="Axh5L3VD_-4czKkgD2Hi-6" value="&lt;div style=&quot;background-color:#ffffff;padding:0px 0px 0px 2px;&quot;&gt;&lt;div style=&quot;color: rgb(0, 0, 0); background-color: rgb(255, 255, 255); font-family: Consolas; font-size: 10pt;&quot;&gt;&lt;p style=&quot;margin:0;&quot;&gt;&lt;span style=&quot;color:#7f0055;font-weight:bold;&quot;&gt;public&lt;/span&gt;&lt;span style=&quot;color:#000000;&quot;&gt; &lt;/span&gt;&lt;span style=&quot;color:#7f0055;font-weight:bold;&quot;&gt;class&lt;/span&gt;&lt;span style=&quot;color:#000000;&quot;&gt; &lt;/span&gt;&lt;span style=&quot;color:#000000;background-color:#d4d4d4;&quot;&gt;TreeSet&lt;/span&gt;&lt;span style=&quot;color:#000000;&quot;&gt;&amp;lt;E&amp;gt; &lt;/span&gt;&lt;span style=&quot;color:#7f0055;font-weight:bold;&quot;&gt;extends&lt;/span&gt;&lt;span style=&quot;color:#000000;&quot;&gt; AbstractSet&amp;lt;E&amp;gt;&amp;nbsp;&lt;/span&gt;&lt;span style=&quot;font-size: 10pt; color: rgb(127, 0, 85); font-weight: bold;&quot;&gt;implements&lt;/span&gt; NavigableSet&amp;lt;E&amp;gt;&amp;nbsp;&lt;span style=&quot;font-size: 10pt; color: rgb(127, 0, 85); font-weight: bold;&quot;&gt;extends&lt;/span&gt;&lt;span style=&quot;font-size: 10pt;&quot;&gt; SortedSet&amp;lt;E&amp;gt;&amp;nbsp;&lt;/span&gt;extends&lt;span style=&quot;font-size: 10pt;&quot;&gt; Set&amp;lt;E&amp;gt;&lt;/span&gt;&lt;span style=&quot;font-size: 10pt;&quot;&gt;, Cloneable, java.io.Serializable{&lt;/span&gt;&lt;/p&gt;&lt;p style=&quot;margin:0;&quot;&gt;&lt;span style=&quot;font-size: 10pt;&quot;&gt;&lt;br&gt;&lt;/span&gt;&lt;/p&gt;&lt;p style=&quot;border-color: var(--border-color); font-size: 13.3333px; margin: 0px;&quot;&gt;1) Not Synchronized&lt;/p&gt;&lt;p style=&quot;border-color: var(--border-color); font-size: 13.3333px; margin: 0px;&quot;&gt;&lt;span style=&quot;border-color: var(--border-color); font-size: 10pt;&quot;&gt;2) Internally using Treemap&lt;/span&gt;&lt;/p&gt;&lt;p style=&quot;border-color: var(--border-color); font-size: 13.3333px; margin: 0px;&quot;&gt;&lt;span style=&quot;border-color: var(--border-color); font-size: 10pt;&quot;&gt;3) Random Access&lt;/span&gt;&lt;/p&gt;&lt;p style=&quot;border-color: var(--border-color); font-size: 13.3333px; margin: 0px;&quot;&gt;&lt;span style=&quot;border-color: var(--border-color); font-size: 10pt;&quot;&gt;4) By default sorted&lt;/span&gt;&lt;/p&gt;&lt;p style=&quot;border-color: var(--border-color); font-size: 13.3333px; margin: 0px;&quot;&gt;&lt;span style=&quot;border-color: var(--border-color); font-size: 10pt;&quot;&gt;5) Insertion and deletion is slower than the HashMap&lt;/span&gt;&lt;/p&gt;&lt;p style=&quot;border-color: var(--border-color); font-size: 13.3333px; margin: 0px;&quot;&gt;&lt;span style=&quot;border-color: var(--border-color); font-size: 10pt;&quot;&gt;6) Time Complexity is O(log(n))&lt;/span&gt;&lt;/p&gt;&lt;p style=&quot;border-color: var(--border-color); font-size: 13.3333px; margin: 0px;&quot;&gt;&lt;span style=&quot;border-color: var(--border-color); font-size: 10pt;&quot;&gt;7) Internally using equals(), hashCode() , Comparator, compare() and compareto() to maintian the by defualt ascending order&lt;/span&gt;&lt;/p&gt;&lt;p style=&quot;margin:0;&quot;&gt;&lt;span style=&quot;font-size: 10pt;&quot;&gt;}&lt;/span&gt;&lt;/p&gt;&lt;/div&gt;&lt;/div&gt;" style="text;whiteSpace=wrap;html=1;" vertex="1" parent="1">
          <mxGeometry x="10" y="-360" width="1150" height="180" as="geometry" />
        </mxCell>
      </root>
    </mxGraphModel>
  </diagram>
</mxfile>
